<svg width="16" height="16" viewBox="0 0 16 16" fill="none" xmlns="http://www.w3.org/2000/svg">
    <path fill-rule="evenodd" clip-rule="evenodd" d="M6.56963 10.424C4.43689 10.424 2.71528 8.70236 2.71528 6.56963C2.71528 4.43689 4.43689 2.71528 6.56963 2.71528C8.70236 2.71528 10.424 4.43689 10.424 6.56963C10.424 8.70236 8.70236 10.424 6.56963 10.424ZM11.7204 10.434H11.0429L10.8027 10.2024C11.6432 9.2247 12.1492 7.9554 12.1492 6.57461C12.1492 3.49571 9.65352 1 6.57461 1C3.49571 1 1 3.49571 1 6.57461C1 9.65352 3.49571 12.1492 6.57461 12.1492C7.9554 12.1492 9.2247 11.6432 10.2024 10.8027L10.434 11.0429V11.7204L14.7221 16L16 14.7221L11.7204 10.434Z" fill="#A5B2BC"/>
</svg>