<svg width="24" height="24" viewBox="0 0 24 24" fill="none" xmlns="http://www.w3.org/2000/svg">
    <path fill-rule="evenodd" clip-rule="evenodd" d="M12.5217 24C5.376 24 0 18.624 0 12.5217C0 5.376 5.376 0 12.5217 0C18.624 0 24 5.376 24 12.5217C24 18.624 18.624 24 12.5217 24ZM7.72461 13.0777C7.99048 13.731 8.41722 14.0301 8.61285 13.9697C8.80771 13.9085 8.88627 13.7801 8.88627 13.7801C8.88627 13.7801 9.06074 14.4621 9.17479 14.7982C9.53583 15.8662 10.813 17.0762 11.5351 17.2839C11.9407 17.401 12.1643 17.3708 12.5465 17.2839C13.0812 17.1639 14.2889 16.1963 14.8509 14.8496C14.8648 14.8112 14.8786 14.7738 14.8923 14.7366L14.8923 14.7366C14.9895 14.473 15.082 14.2221 15.1779 13.7363C15.1779 13.7194 15.182 13.7231 15.1973 13.7368C15.2284 13.7649 15.3063 13.8351 15.4914 13.8579C15.7175 13.8851 15.835 13.6337 16.0241 13.2292C16.0661 13.1392 16.1117 13.0417 16.1628 12.9379C16.6689 11.7385 16.5956 10.9243 16.2558 10.8616C16.0903 10.8314 15.9748 10.9137 15.8622 11.0172C15.8063 11.0172 15.7505 11.0172 15.7505 10.9651C15.7505 10.6707 15.7988 10.2588 15.88 9.56606L15.88 9.56602C15.8988 9.4056 15.9194 9.23012 15.9415 9.03755C16.2089 6.72104 15.6251 5.9748 15.6251 5.9748C15.6251 5.9748 15.2844 6.19082 13.8713 5.61377C12.8569 5.20062 11.3712 5.0556 10.1355 5.44609C9.25636 5.72404 9.45123 6.22632 9.45123 6.22632C9.45123 6.22632 8.57282 5.88492 8.0577 6.93555C7.74108 7.58164 7.90501 8.30894 8.12773 9.2971L8.12778 9.29731C8.1537 9.41229 8.18041 9.5308 8.20725 9.65312C8.28282 9.99633 8.30347 10.3393 8.32121 10.6339V10.6339C8.33327 10.834 8.34398 11.0119 8.36964 11.1524C8.36964 11.1524 8.25483 11.2574 8.16269 11.1683L8.1571 11.1629L8.15709 11.1629C8.06041 11.0701 7.80771 10.8276 7.65739 10.8276C7.4882 10.8276 7.26614 11.0935 7.3379 11.6365C7.41041 12.1796 7.45874 12.4243 7.72461 13.0777ZM15.4293 17.5931C15.7166 17.4501 16.0551 17.4536 16.3394 17.6027L17.8776 18.4093C18.38 18.6728 18.5454 19.2929 18.1497 19.6994C17.2482 20.6255 15.3377 22.0174 11.997 22.0174C8.65829 22.0174 6.75096 20.6276 5.85061 19.7015C5.4547 19.2943 5.62178 18.6737 6.12568 18.4116L7.68623 17.6C7.96972 17.4526 8.30661 17.4495 8.59275 17.5917L11.5696 19.0715C11.8502 19.2109 12.1799 19.2108 12.4604 19.0712L15.4293 17.5931Z" fill="#A5B2BC"/>
</svg>