<svg width="16" height="16" viewBox="0 0 16 16" fill="none" xmlns="http://www.w3.org/2000/svg">
    <path fill-rule="evenodd" clip-rule="evenodd" d="M14.125 8C14.125 11.3827 11.3827 14.125 8 14.125C4.61726 14.125 1.875 11.3827 1.875 8C1.875 4.61726 4.61726 1.875 8 1.875C11.3827 1.875 14.125 4.61726 14.125 8ZM7.27848 9.65574C7.27848 9.20215 7.33356 8.84089 7.44372 8.57198C7.55388 8.30306 7.75476 8.039 8.04635 7.77981C8.34119 7.51737 8.53721 7.30516 8.6344 7.14316C8.7316 6.97792 8.7802 6.80458 8.7802 6.62315C8.7802 6.07559 8.52748 5.80182 8.02205 5.80182C7.78229 5.80182 7.58952 5.87634 7.44372 6.02538C7.30116 6.17117 7.22664 6.37367 7.22017 6.63287H5.81079C5.81727 6.01404 6.01652 5.52966 6.40856 5.17975C6.80383 4.82983 7.34166 4.65488 8.02205 4.65488C8.70892 4.65488 9.2419 4.82173 9.62097 5.15545C10 5.48592 10.1896 5.9541 10.1896 6.55997C10.1896 6.83536 10.128 7.09618 10.0049 7.34241C9.88178 7.58541 9.66633 7.85595 9.35853 8.15402L8.96488 8.52824C8.71864 8.76475 8.5777 9.04177 8.54206 9.35928L8.52262 9.65574H7.27848ZM7.35624 10.6131C7.21044 10.7525 7.13755 10.9307 7.13755 11.1477C7.13755 11.3616 7.20883 11.5382 7.35139 11.6775C7.49718 11.8168 7.68834 11.8864 7.92485 11.8864C8.16137 11.8864 8.35091 11.8168 8.49347 11.6775C8.63927 11.5382 8.71216 11.3616 8.71216 11.1477C8.71216 10.9307 8.63764 10.7525 8.48861 10.6131C8.34281 10.4706 8.15489 10.3993 7.92485 10.3993C7.69481 10.3993 7.50528 10.4706 7.35624 10.6131Z" fill="#A5B2BC"/>
</svg>