<svg width="72" height="25" viewBox="0 0 72 25" fill="none" xmlns="http://www.w3.org/2000/svg">
    <path fill-rule="evenodd" clip-rule="evenodd" d="M61.1965 0.679395C61.1965 0.679395 59.0344 3.82017 59.0344 8.41069C59.0344 10.9345 59.7832 12.5565 60.7887 13.4842C61.7977 14.4119 62.9332 14.5885 63.5238 14.5885C64.5047 14.5885 65.2605 14.1965 65.8933 13.8678C66.0937 13.7633 66.2836 13.6648 66.4629 13.5879L65.6543 11.5515C65.4091 11.6553 65.1785 11.7592 64.9622 11.8565L64.8949 11.8868L64.8853 11.8911C64.2782 12.1654 63.8036 12.3799 63.5238 12.3799C63.3023 12.3799 62.7293 12.3064 62.2406 11.8622C61.7555 11.4179 61.1965 10.5161 61.1965 8.41069C61.1965 5.17061 62.2687 3.22471 62.68 2.54311C63.2285 2.74439 63.8121 2.91094 64.4098 3.08145C65.271 3.3271 66.1605 3.5811 67.0043 3.95815C67.848 4.33345 68.5406 4.83398 69.0293 5.44262C69.518 6.05083 69.8414 6.78428 69.8414 7.9273C69.8414 9.0189 69.43 9.54972 69.0293 9.92943C68.9871 9.97164 68.9555 9.9954 68.9203 10.0209L68.8605 10.0674C68.2735 8.69546 67.3277 7.35776 65.8547 6.16729L64.5398 7.9273C67.6936 10.4761 67.6863 13.4708 67.6793 16.3679L67.6793 16.3771V16.7977H69.8414C69.8414 15.4947 69.8308 13.9069 69.5004 12.2761C69.7922 12.121 70.1578 11.8881 70.5164 11.5515C71.2617 10.8523 72 9.63585 72 7.9273C72 6.33999 71.5078 5.00669 70.7168 4.02715C69.9293 3.04805 68.8817 2.41831 67.848 1.95645C66.586 1.39482 64.8317 0.912303 63.5027 0.547558C62.6485 0.31289 61.9735 0.126563 61.7203 0L61.1965 0.679395ZM6.21914 24.6481C4.4543 24.6481 2.96367 24.0517 1.78242 22.8432C0.597656 21.6348 0 20.1446 0 18.3727C0 16.6013 0.597656 15.0944 1.79648 13.8529C3.01289 12.611 4.48594 11.9984 6.23672 11.9984C7.9875 11.9984 9.46053 12.611 10.6594 13.8529C11.8723 15.0944 12.4735 16.5845 12.4735 18.3397C12.4735 20.0949 11.8723 21.5851 10.6594 22.8103C9.46053 24.0355 7.9875 24.6481 6.21914 24.6481ZM8.89807 15.5369C9.62579 16.2817 9.98444 17.209 9.98444 18.3349C9.99848 19.4445 9.64334 20.3713 8.91565 21.1166C8.1844 21.8615 7.29495 22.2258 6.24025 22.2258C5.18908 22.2258 4.29612 21.8615 3.56838 21.1166C2.85471 20.3713 2.49963 19.4445 2.49963 18.3349C2.49963 17.2257 2.85471 16.2817 3.58596 15.5369C4.3137 14.792 5.18908 14.411 6.24025 14.411C7.29495 14.411 8.17033 14.792 8.89807 15.5369ZM15.6305 24.4548V19.6199C15.6305 18.2787 16.4391 17.3352 17.6555 17.3352C18.7735 17.3352 19.5153 18.1297 19.5153 19.5702V24.4548H21.8005V18.9414C21.8005 17.7324 21.4595 16.8052 20.795 16.1597C20.134 15.5141 19.3078 15.1827 18.3516 15.1827C17.1036 15.1827 16.0488 15.812 15.5813 16.6896V15.431H13.3453V24.4548H15.6305ZM31.4825 20.7458C31.5317 20.3815 31.5633 20.0339 31.5633 19.7193C31.5633 18.3121 31.145 17.2192 30.3188 16.408C29.4926 15.5967 28.4238 15.1827 27.1442 15.1827C25.7836 15.1827 24.6797 15.6297 23.8219 16.524C22.9641 17.4178 22.5422 18.5437 22.5422 19.9179C22.5422 21.2261 22.9465 22.3519 23.7727 23.2626C24.5988 24.1731 25.7836 24.6367 27.3375 24.6367C28.7965 24.6367 30.0727 24.2228 31.1906 23.3948L30.2836 21.7557C29.5242 22.2856 28.3887 22.6667 27.4325 22.6667C26.0403 22.6667 25.1825 22.0207 24.859 20.7458H31.4825ZM27.1618 17.136C26.0121 17.136 25.1508 17.848 24.8766 19.0235H29.3625C29.1516 17.848 28.3255 17.136 27.1618 17.136ZM31.4965 22.3467C32.4844 23.8202 34.1683 24.6314 36.0317 24.6314C37.343 24.6314 38.3977 24.2838 39.2062 23.5882C40.0183 22.8929 40.4227 21.9987 40.4227 20.9062C40.4227 19.5482 39.7406 18.5383 38.38 17.8595C38.0742 17.7104 37.5855 17.4956 36.9245 17.2139L35.7398 16.6839C35.093 16.353 34.7695 15.9557 34.7695 15.4754C34.7695 14.7635 35.3531 14.2999 36.3058 14.2999C37.1988 14.2999 38.2675 14.7138 38.932 15.4424L40.2117 13.6543C39.143 12.5447 37.8317 11.9984 36.2742 11.9984C35.0754 11.9984 34.0875 12.3461 33.3281 13.025C32.5652 13.704 32.1925 14.5482 32.1925 15.5747C32.1925 16.8662 32.8254 17.8761 34.0875 18.6214C34.4109 18.8034 34.882 19.035 35.4972 19.2837L35.7082 19.3668C36.218 19.5658 36.5344 19.6906 36.6785 19.7636C37.4097 20.1112 37.7648 20.5418 37.7648 21.0385C37.7648 21.8167 37.037 22.3467 36.0492 22.3467C34.8187 22.3467 33.6515 21.7504 32.8745 20.6412L31.4965 22.3467ZM40.8094 19.9345C40.8094 18.61 41.2453 17.4842 42.1383 16.5736C43.0278 15.6464 44.1633 15.1827 45.5379 15.1827C46.916 15.1827 48.0516 15.6464 48.941 16.5736C49.8305 17.4842 50.27 18.61 50.27 19.9345C50.27 21.2757 49.8305 22.4016 48.941 23.3122C48.0516 24.2228 46.916 24.6864 45.5379 24.6864C44.1633 24.6864 43.0278 24.2228 42.1383 23.3122C41.2453 22.4016 40.8094 21.2757 40.8094 19.9345ZM45.5449 22.501C44.8488 22.501 44.2652 22.2527 43.7942 21.7561C43.3265 21.2428 43.098 20.6302 43.098 19.9183C43.098 19.2064 43.3265 18.5938 43.7942 18.0967C44.2652 17.6002 44.8488 17.3519 45.5449 17.3519C46.241 17.3519 46.807 17.6002 47.2781 18.0967C47.7457 18.5938 47.9883 19.2064 47.9883 19.9183C47.9883 20.6302 47.7457 21.2428 47.2781 21.7561C46.807 22.2527 46.241 22.501 45.5449 22.501ZM53.3039 13.9887C53.8382 13.4419 53.8382 12.4818 53.3039 11.9518C52.7695 11.4056 51.8308 11.4056 51.2965 11.9518C50.762 12.4818 50.762 13.4419 51.2965 13.9887C51.8308 14.5349 52.7695 14.5349 53.3039 13.9887ZM51.1594 15.4235H53.4445V24.4472H51.1594V15.4235ZM56.9988 11.8547H54.7137V24.438H56.9988V11.8547Z" fill="#222222"/>
</svg>