<svg width="16" height="18" viewBox="0 0 16 18" fill="none" xmlns="http://www.w3.org/2000/svg">
    <path fill-rule="evenodd" clip-rule="evenodd" d="M2.56 0H13.44C14.33 0 14.65 0.1 14.98 0.27C15.3 0.44 15.56 0.7 15.73 1.02C15.91 1.35 16 1.67 16 2.56V15.44C16 16.33 15.9 16.65 15.73 16.98C15.56 17.3 15.3 17.56 14.98 17.73C14.65 17.91 14.33 18 13.44 18H2.56C1.67 18 1.35 17.9 1.02 17.73C0.701082 17.56 0.439992 17.2989 0.27 16.98C0.09 16.65 0 16.33 0 15.44V2.56C0 1.67 0.1 1.35 0.27 1.02C0.44 0.7 0.7 0.44 1.02 0.27C1.35 0.09 1.67 0 2.56 0ZM3 0V18H2V0H3ZM14 4V8H5V4H14Z" fill="#A5B2BC"/>
</svg>