<svg width="20" height="21" viewBox="0 0 20 21" fill="none" xmlns="http://www.w3.org/2000/svg">
    <path fill-rule="evenodd" clip-rule="evenodd" d="M0 10.5C0 16.023 4.477 20.5 10 20.5C15.523 20.5 20 16.023 20 10.5C20 4.977 15.523 0.5 10 0.5C4.477 0.5 0 4.977 0 10.5ZM14.7051 5.795C15.0956 6.18547 15.0956 6.81853 14.7051 7.209L11.4141 10.5L14.7051 13.791C15.0956 14.1815 15.0956 14.8145 14.7051 15.205C14.3146 15.5955 13.6816 15.5955 13.2911 15.205L10.0001 11.914L6.7091 15.205C6.31863 15.5955 5.68557 15.5955 5.2951 15.205C4.90463 14.8145 4.90463 14.1815 5.2951 13.791L8.5861 10.5L5.2951 7.209C4.90463 6.81853 4.90463 6.18547 5.2951 5.795C5.68557 5.40453 6.31863 5.40453 6.7091 5.795L10.0001 9.086L13.2911 5.795C13.6816 5.40453 14.3146 5.40453 14.7051 5.795Z" fill="#222222"/>
</svg>