<svg width="18" height="20" viewBox="0 0 18 20" fill="none" xmlns="http://www.w3.org/2000/svg">
    <g clip-path="url(#clip0_95_18036)">
        <path d="M16 6H2V17H16V6ZM18 3V17C18 18.1 17.1 19 16 19H2C1.46957 19 0.960859 18.7893 0.585786 18.4142C0.210714 18.0391 0 17.5304 0 17L0.01 3C0.01 1.9 0.89 1 2 1H3V-1H5V1H13V-1H15V1H16C17.1 1 18 1.9 18 3ZM14 10H12V8H14V10ZM10 10H8V8H10V10ZM6 10H4V8H6V10Z" fill="black"/>
    </g>
    <defs>
        <clipPath id="clip0_95_18036">
            <rect width="18" height="20" fill="white"/>
        </clipPath>
    </defs>
</svg>